<svg width="28" height="28" viewBox="0 0 28 28" fill="none" xmlns="http://www.w3.org/2000/svg">
<path d="M23.0643 13.5859C22.2121 12.5907 21.8248 11.7282 21.8248 10.263V9.76483C21.8248 7.85547 21.3854 6.62525 20.43 5.39503C18.9574 3.4845 16.4784 2.33301 14.0515 2.33301H13.9483C11.5725 2.33301 9.17116 3.43162 7.67308 5.26461C6.66547 6.5195 6.175 7.80259 6.175 9.76483V10.263C6.175 11.7282 5.81323 12.5907 4.93549 13.5859C4.28964 14.3191 4.08325 15.2614 4.08325 16.2813C4.08325 17.3024 4.41835 18.2694 5.09086 19.0555C5.96861 19.9978 7.20812 20.5994 8.4743 20.704C10.3075 20.9131 12.1407 20.9919 14.0005 20.9919C15.8592 20.9919 17.6924 20.8603 19.5267 20.704C20.7917 20.5994 22.0312 19.9978 22.909 19.0555C23.5803 18.2694 23.9166 17.3024 23.9166 16.2813C23.9166 15.2614 23.7102 14.3191 23.0643 13.5859Z" fill="#FF647C"/>
<path d="M16.3433 22.4323C15.7601 22.3077 12.2062 22.3077 11.623 22.4323C11.1244 22.5474 10.5852 22.8153 10.5852 23.4028C10.6142 23.9633 10.9423 24.458 11.3969 24.7717L11.3957 24.7729C11.9836 25.2311 12.6735 25.5225 13.3958 25.6271C13.7808 25.68 14.1727 25.6776 14.5716 25.6271C15.2928 25.5225 15.9827 25.2311 16.5706 24.7729L16.5694 24.7717C17.0239 24.458 17.3521 23.9633 17.3811 23.4028C17.3811 22.8153 16.8419 22.5474 16.3433 22.4323Z" fill="#FF0E33"/>
</svg>
