<svg width="30" height="30" viewBox="0 0 30 30" fill="none" xmlns="http://www.w3.org/2000/svg">
<path opacity="0.8" fill-rule="evenodd" clip-rule="evenodd" d="M19.8857 3.4375C19.8857 3.4375 10.2895 3.4425 10.2745 3.4425C6.82448 3.46375 4.68823 5.73375 4.68823 9.19625V20.6912C4.68823 24.1713 6.84073 26.45 10.3207 26.45C10.3207 26.45 19.9157 26.4462 19.932 26.4462C23.382 26.425 25.5195 24.1538 25.5195 20.6912V9.19625C25.5195 5.71625 23.3657 3.4375 19.8857 3.4375Z" fill="#7DDFC3" fill-opacity="0.4" stroke="#00C48C" stroke-width="1.5" stroke-linecap="round" stroke-linejoin="round"/>
<path fill-rule="evenodd" clip-rule="evenodd" d="M19.6451 20.2793H10.6201H19.6451Z" fill="#7DDFC3"/>
<path d="M19.6451 20.2793H10.6201" stroke="#00C48C" stroke-width="1.5" stroke-linecap="round" stroke-linejoin="round"/>
<path fill-rule="evenodd" clip-rule="evenodd" d="M19.6451 15.0459H10.6201H19.6451Z" fill="#7DDFC3"/>
<path d="M19.6451 15.0459H10.6201" stroke="#00C48C" stroke-width="1.5" stroke-linecap="round" stroke-linejoin="round"/>
<path fill-rule="evenodd" clip-rule="evenodd" d="M14.0641 9.8252H10.6204H14.0641Z" fill="#7DDFC3"/>
<path d="M14.0641 9.8252H10.6204" stroke="#00C48C" stroke-width="1.5" stroke-linecap="round" stroke-linejoin="round"/>
</svg>
