<svg width="30" height="30" viewBox="0 0 30 30" fill="none" xmlns="http://www.w3.org/2000/svg">
<path fill-rule="evenodd" clip-rule="evenodd" d="M20.3783 3.4375H9.56326C5.79826 3.4375 3.43701 6.105 3.43701 9.88V20.0625C3.43701 23.8375 5.78826 26.505 9.56326 26.505H20.372C24.1533 26.505 26.5033 23.8375 26.5033 20.0625V9.88C26.5083 6.105 24.157 3.4375 20.3783 3.4375Z" fill="#FDAFBB" fill-opacity="0.6" stroke="#FF507A" stroke-width="1.5" stroke-linecap="round" stroke-linejoin="round"/>
<path fill-rule="evenodd" clip-rule="evenodd" d="M13.3787 10.9813C13.3787 12.2563 12.3462 13.2888 11.0712 13.2888C9.79742 13.2888 8.76367 12.2563 8.76367 10.9813C8.76367 9.70633 9.79742 8.67383 11.0712 8.67383C12.3449 8.67508 13.3774 9.70758 13.3787 10.9813Z" fill="#FF507A"/>
<path d="M26.5088 18.6888C25.355 17.5013 23.1363 15.1025 20.7238 15.1025C18.31 15.1025 16.9187 20.3938 14.5975 20.3938C12.2762 20.3938 10.1675 18.0013 8.3075 19.535C6.4475 21.0675 4.6875 24.2013 4.6875 24.2013" stroke="#FF507A" stroke-width="1.5" stroke-linecap="round" stroke-linejoin="round"/>
</svg>
