<svg width="56" height="56" viewBox="0 0 56 56" fill="none" xmlns="http://www.w3.org/2000/svg">
<circle cx="28" cy="28" r="28" fill="#6D79E8"/>
<path d="M25.0381 30.6017C25.0635 30.6517 25.0777 30.7047 25.072 30.7607C25.0692 30.8019 25.0607 30.8431 25.0381 30.8785C25.0353 30.8902 25.0296 30.902 25.0211 30.9138C24.99 30.9609 24.9448 30.9962 24.8939 31.0198C22.5817 32.0886 19.6589 31.6293 17.6577 29.6771C16.2754 28.3315 15.5546 26.5943 15.5094 24.8747C15.4613 23.1552 16.0889 21.4533 17.4004 20.1754L27.6839 10.1584C30.0045 7.89707 33.6962 7.73512 36.4183 9.61368C36.7575 9.84334 37.0825 10.1083 37.3878 10.4057L39.8159 12.7701L24.4869 27.7073C24.3229 27.8663 24.1929 28.0606 24.1081 28.2726C24.0233 28.4846 23.9837 28.7113 23.9922 28.941C24.0064 29.4151 24.2099 29.8685 24.5547 30.2012C24.665 30.3102 24.7893 30.4044 24.925 30.4839C24.9731 30.5133 25.0127 30.5546 25.0381 30.6017Z" fill="#F2F1FF"/>
<path opacity="0.8" d="M31.3863 23.7303C31.3608 23.6802 31.3467 23.6272 31.3524 23.5713C31.3552 23.5301 31.3637 23.4889 31.3863 23.4535C31.3891 23.4417 31.3948 23.43 31.4032 23.4182C31.4343 23.3711 31.4796 23.3358 31.5304 23.3122C33.8427 22.2434 36.7654 22.7027 38.7667 24.6549C40.149 26.0005 40.8698 27.7377 40.915 29.4572C40.963 31.1768 40.3355 32.8787 39.0239 34.1566L28.7405 44.1736L24.2518 48.549C24.2518 48.549 20.0259 44.9568 19.0366 43.9263C17.7222 42.6454 17.7222 40.4754 19.0366 39.1975L31.9375 26.6247C32.1014 26.4657 32.2315 26.2714 32.3163 26.0594C32.4011 25.8474 32.4406 25.6206 32.4322 25.391C32.418 24.9169 32.2145 24.4635 31.8696 24.1307C31.7594 24.0218 31.635 23.9276 31.4994 23.8481C31.4513 23.8186 31.4117 23.7774 31.3863 23.7303Z" fill="#F2F1FF"/>
</svg>
