<svg width="20" height="20" viewBox="0 0 20 20" fill="none" xmlns="http://www.w3.org/2000/svg">
<path fill-rule="evenodd" clip-rule="evenodd" d="M16.449 5.12835C16.449 2.83596 14.8818 1.91699 12.6253 1.91699H7.32623C5.1391 1.91699 3.5 2.7733 3.5 4.97547V17.2453C3.5 17.8502 4.15079 18.2311 4.67794 17.9354L9.99624 14.9521L15.2686 17.9304C15.7966 18.2278 16.449 17.8468 16.449 17.2411V5.12835Z" stroke="#6D6F81" stroke-width="1.8" stroke-linecap="round" stroke-linejoin="round"/>
<path fill-rule="evenodd" clip-rule="evenodd" d="M10.3357 5.1925L10.849 6.23167C10.899 6.33333 10.9957 6.40417 11.1082 6.42083L12.2557 6.58833C12.5399 6.63 12.6524 6.97833 12.4474 7.1775L11.6174 7.98583C11.5357 8.065 11.499 8.17917 11.5174 8.29167L11.7132 9.43333C11.7615 9.71583 11.4657 9.93083 11.2124 9.7975L10.1865 9.25833C10.0857 9.205 9.96569 9.205 9.86486 9.25833L8.83986 9.7975C8.58569 9.93083 8.28986 9.71583 8.33819 9.43333L8.53403 8.29167C8.55319 8.17917 8.51569 8.065 8.43403 7.98583L7.60486 7.1775C7.39986 6.97833 7.51236 6.63 7.79569 6.58833L8.94319 6.42083C9.05569 6.40417 9.15319 6.33333 9.20319 6.23167L9.71569 5.1925C9.84236 4.93583 10.209 4.93583 10.3357 5.1925Z" fill="#6D6F81"/>
</svg>
