<svg width="16" height="16" viewBox="0 0 16 16" fill="none" xmlns="http://www.w3.org/2000/svg">
<path fill-rule="evenodd" clip-rule="evenodd" d="M10.8647 10.3585C10.9186 11.5799 9.93287 12.6127 8.66316 12.6646C8.56964 12.6686 4.01029 12.6594 4.01029 12.6594C2.74672 12.7553 1.64085 11.8473 1.54118 10.6305C1.53367 10.5399 1.53572 5.6478 1.53572 5.6478C1.47974 4.42511 2.46411 3.38967 3.7345 3.33579C3.82939 3.33119 8.38259 3.33973 8.38259 3.33973C9.6523 3.24512 10.7616 4.15968 10.8599 5.38237C10.8667 5.47041 10.8647 10.3585 10.8647 10.3585Z" stroke="#8F919F" stroke-width="1.2" stroke-linecap="round" stroke-linejoin="round"/>
<path d="M10.8667 6.65257L13.062 4.85591C13.606 4.41057 14.422 4.79857 14.4214 5.50057L14.4134 10.3999C14.4127 11.1019 13.596 11.4866 13.0534 11.0412L10.8667 9.24457" stroke="#8F919F" stroke-width="1.2" stroke-linecap="round" stroke-linejoin="round"/>
</svg>
